<svg width="67" height="51" viewBox="0 0 67 51" fill="none" xmlns="http://www.w3.org/2000/svg">
<path d="M0.669065 0.052742C0.464171 0.119698 0.112924 0.479591 0.0502013 0.69302C-0.100333 1.21194 0.104561 1.73085 0.564527 1.97776L0.731788 2.06983L20.8867 2.09075C40.4394 2.11168 41.0457 2.11586 41.1879 2.19118C41.3928 2.29999 41.5977 2.50086 41.7022 2.69755L41.7942 2.86494L41.8068 17.1226L41.8151 31.3845H22.9983H4.18153V26.5594V21.7385L4.08118 21.5293C3.8512 21.0396 3.32432 20.8137 2.78491 20.9727C2.55493 21.0396 2.20786 21.387 2.14096 21.6171C2.10332 21.7469 2.09078 22.9647 2.09078 26.6808V31.5728L1.89007 31.6524C1.02449 32.0039 0.330363 32.8241 0.0836534 33.7866C0.00420468 34.1047 2.31663e-05 34.2469 2.31663e-05 37.6492C2.31663e-05 41.5913 -0.00833986 41.4825 0.292729 42.1186C0.698336 42.9932 1.45937 43.6168 2.40021 43.8553C2.71382 43.9348 2.87272 43.939 5.58234 43.939H8.42995L8.50522 44.324C8.68084 45.2363 9.17008 46.3704 9.72204 47.1404C10.826 48.6762 12.44 49.7224 14.305 50.0991C14.7148 50.1828 14.9071 50.1953 15.6807 50.1953C16.4543 50.1953 16.6466 50.1828 17.0564 50.0991C18.6077 49.7852 20.0253 48.9901 21.0665 47.8476C21.9488 46.8809 22.622 45.5627 22.8562 44.324L22.9314 43.939H34.4975H46.0636L46.1388 44.324C46.3144 45.2363 46.8037 46.3704 47.3556 47.1404C48.4596 48.6762 50.0736 49.7224 51.9386 50.0991C52.3484 50.1828 52.5407 50.1953 53.3143 50.1953C54.0879 50.1953 54.2802 50.1828 54.69 50.0991C56.2414 49.7852 57.6589 48.9901 58.7001 47.8476C59.5824 46.8809 60.2556 45.5627 60.4898 44.324L60.565 43.939H62.3673C64.0399 43.939 64.1988 43.9348 64.504 43.8553C65.6623 43.5582 66.5321 42.6919 66.8206 41.5369C66.9 41.2189 66.9042 41.064 66.9042 37.6618C66.9042 34.2469 66.9 34.1047 66.8206 33.7866C66.5739 32.8241 65.8797 32.0039 65.0142 31.6524L64.8134 31.5728V29.2252C64.8134 26.6557 64.8051 26.5134 64.5626 25.7643C64.4957 25.5551 64.366 25.237 64.2824 25.0654C64.1402 24.7851 57.3076 14.1054 56.4755 12.8667C55.7605 11.7995 54.7904 11.0546 53.6572 10.6948C53.0383 10.5022 52.6494 10.4604 51.3615 10.4604H50.1782V9.29702C50.1782 8.22152 50.1698 8.12527 50.0903 7.9495C49.8645 7.44733 49.3293 7.21297 48.7815 7.372C48.5516 7.43896 48.2045 7.7863 48.1376 8.01646C48.1041 8.13364 48.0874 8.5563 48.0874 9.32631V10.4604H45.9966H43.9059V6.59781C43.9059 2.87331 43.9017 2.71848 43.8223 2.40043C43.5839 1.45884 42.9609 0.697205 42.0869 0.291275C41.4053 -0.0309563 43.4627 -0.00166321 20.9828 0.00252151C6.4061 0.00670624 0.773603 0.0192604 0.669065 0.052742ZM52.4947 12.5947C53.285 12.7118 54.0168 13.1219 54.4977 13.7246C54.7611 14.0593 62.3255 25.848 62.43 26.0907C62.4802 26.2037 62.5596 26.4297 62.6056 26.5929C62.6934 26.8733 62.6976 26.9821 62.7143 29.1331L62.7269 31.3845H53.3185H43.9059V21.9687V12.5528H48.0581C50.5712 12.5528 52.3191 12.5696 52.4947 12.5947ZM64.2071 33.5899C64.4037 33.6945 64.6044 33.8996 64.7131 34.1047C64.7884 34.2428 64.7925 34.4143 64.7925 37.6618C64.7925 40.9092 64.7884 41.0808 64.7131 41.2189C64.6044 41.4239 64.4037 41.629 64.2071 41.7336C64.0441 41.8215 63.9897 41.8257 62.3045 41.8382L60.565 41.8508L60.4898 41.4616C60.3141 40.5493 59.8249 39.4152 59.2729 38.6452C58.169 37.1052 56.555 36.0632 54.69 35.6865C54.2802 35.6028 54.0879 35.5903 53.3143 35.5903C52.5407 35.5903 52.3484 35.6028 51.9386 35.6865C50.0694 36.0673 48.4596 37.1052 47.3556 38.6452C46.8037 39.4152 46.3144 40.5493 46.1388 41.4574L46.0636 41.8466H34.4975H22.9314L22.8562 41.4574C22.6805 40.5493 22.1913 39.4152 21.6393 38.6452C20.5354 37.1052 18.9214 36.0632 17.0564 35.6865C16.6466 35.6028 16.4543 35.5903 15.6807 35.5903C14.9071 35.5903 14.7148 35.6028 14.305 35.6865C12.4358 36.0673 10.826 37.1052 9.72204 38.6452C9.17008 39.4152 8.68084 40.5493 8.50522 41.4616L8.42995 41.8508L5.64506 41.8382C2.88527 41.8257 2.86436 41.8257 2.6971 41.7336C2.50057 41.629 2.29567 41.4239 2.19114 41.2189C2.12841 41.1017 2.11169 40.9468 2.09914 40.4112L2.08242 39.7542H2.1995C2.36258 39.7542 2.71382 39.5826 2.85181 39.4361C2.91454 39.3692 3.00235 39.2311 3.04834 39.1265C3.12779 38.9507 3.13616 38.8544 3.13616 37.6618C3.13616 36.4691 3.12779 36.3728 3.04834 36.1971C3.00235 36.0925 2.91454 35.9544 2.85181 35.8874C2.71382 35.7409 2.36258 35.5693 2.1995 35.5693H2.08242L2.09914 34.9081C2.11587 34.1884 2.14514 34.0921 2.40021 33.8201C2.54238 33.6653 2.71382 33.5648 2.90617 33.5146C2.97726 33.4979 16.7595 33.4895 33.5357 33.4937L64.0399 33.4979L64.2071 33.5899ZM16.7428 37.7915C18.7625 38.2016 20.3514 39.8002 20.7863 41.8466C20.8574 42.1856 20.8783 42.4241 20.8783 42.8928C20.8783 43.3615 20.8574 43.6 20.7863 43.939C20.3514 45.9937 18.7792 47.5672 16.7219 48.0025C16.1114 48.1322 15.25 48.1322 14.6395 48.0025C12.5822 47.5672 11.0099 45.9937 10.5751 43.939C10.4454 43.3238 10.4454 42.4618 10.5751 41.8508C11.0476 39.6203 12.8289 37.9924 15.1036 37.7036C15.526 37.6534 16.2494 37.6911 16.7428 37.7915ZM54.3764 37.7915C56.3961 38.2016 57.985 39.8002 58.4199 41.8466C58.491 42.1856 58.5119 42.4241 58.5119 42.8928C58.5119 43.3615 58.491 43.6 58.4199 43.939C57.985 45.9937 56.4128 47.5672 54.3555 48.0025C53.745 48.1322 52.8836 48.1322 52.2731 48.0025C50.2158 47.5672 48.6435 45.9937 48.2087 43.939C48.079 43.3238 48.079 42.4618 48.2087 41.8508C48.6812 39.6203 50.4625 37.9924 52.7372 37.7036C53.1596 37.6534 53.883 37.6911 54.3764 37.7915Z" fill="#E24C55"/>
<path d="M51.8506 25.1074C55.4835 25.1074 55.9562 25.0986 56.1611 25.04C56.9179 24.8141 57.5122 24.1869 57.667 23.4463C57.7297 23.1241 57.6917 22.5925 57.583 22.3037C57.537 22.174 56.575 20.5917 55.4502 18.7881C53.2551 15.2689 53.1502 15.1223 52.6777 14.8838C52.214 14.6496 52.1799 14.6455 49.8643 14.6455C47.7704 14.6497 47.7272 14.6493 47.46 14.7412C46.7575 14.9797 46.2684 15.4865 46.0635 16.1895C46.0049 16.3903 45.9961 16.8343 45.9961 19.8809C45.9961 23.2159 46.0006 23.3502 46.0801 23.6055C46.2976 24.3082 46.8326 24.8308 47.5391 25.04C47.7398 25.0986 48.2378 25.1074 51.8506 25.1074ZM48.0869 16.7373H51.6748L53.623 19.8516C54.6935 21.5631 55.5713 22.9735 55.5713 22.9902C55.5399 23.0027 53.867 23.0146 51.8291 23.0146H48.0869V16.7373Z" fill="#E24C55"/>
<path d="M51.8506 25.1074C55.4835 25.1074 55.9562 25.0986 56.1611 25.04C56.9179 24.8141 57.5122 24.1869 57.667 23.4463C57.7297 23.1241 57.6917 22.5925 57.583 22.3037C57.537 22.174 56.575 20.5917 55.4502 18.7881C53.2551 15.2689 53.1502 15.1223 52.6777 14.8838C52.214 14.6496 52.1799 14.6455 49.8643 14.6455C47.7704 14.6497 47.7272 14.6493 47.46 14.7412C46.7575 14.9797 46.2684 15.4865 46.0635 16.1895C46.0049 16.3903 45.9961 16.8343 45.9961 19.8809C45.9961 23.2159 46.0006 23.3502 46.0801 23.6055C46.2976 24.3082 46.8326 24.8308 47.5391 25.04C47.7398 25.0986 48.2378 25.1074 51.8506 25.1074ZM48.0869 16.7373H51.6748L53.623 19.8516C54.6935 21.5631 55.5713 22.9735 55.5713 22.9902C55.5399 23.0027 53.867 23.0146 51.8291 23.0146H48.0869V16.7373Z" stroke="#E24C55"/>
<path d="M48.0869 29.293C49.3412 29.293 49.3665 29.2886 49.5713 29.1924C49.9517 29.0125 50.1776 28.6654 50.1777 28.2471C50.1777 27.8286 49.9518 27.4807 49.5713 27.3008C49.3666 27.2046 49.3451 27.2009 48.0869 27.2051C47.2841 27.2093 46.757 27.2256 46.665 27.2549C46.4601 27.322 46.1096 27.6822 46.0469 27.8955C45.8881 28.4353 46.1134 28.9622 46.6025 29.1924C46.8074 29.2886 46.8326 29.293 48.0869 29.293Z" fill="#E24C55"/>
<path d="M48.0869 29.293C49.3412 29.293 49.3665 29.2886 49.5713 29.1924C49.9517 29.0125 50.1776 28.6654 50.1777 28.2471C50.1777 27.8286 49.9518 27.4807 49.5713 27.3008C49.3666 27.2046 49.3451 27.2009 48.0869 27.2051C47.2841 27.2093 46.757 27.2256 46.665 27.2549C46.4601 27.322 46.1096 27.6822 46.0469 27.8955C45.8881 28.4353 46.1134 28.9622 46.6025 29.1924C46.8074 29.2886 46.8326 29.293 48.0869 29.293Z" stroke="#E24C55"/>
<path d="M6.87988 39.6533C7.41089 39.9043 8.02967 39.6699 8.27637 39.126C8.35582 38.9502 8.36426 38.8538 8.36426 37.6611C8.36426 36.4059 8.35982 36.3808 8.26367 36.1758C8.14661 35.9247 7.98813 35.7692 7.7373 35.6562C7.52823 35.56 7.18491 35.5477 6.94238 35.623C6.73748 35.69 6.38596 36.0503 6.32324 36.2637C6.28984 36.3854 6.27344 36.825 6.27344 37.6865C6.27344 38.8539 6.28188 38.9502 6.36133 39.126C6.47423 39.377 6.62901 39.5362 6.87988 39.6533Z" fill="#E24C55"/>
<path d="M6.87988 39.6533C7.41089 39.9043 8.02967 39.6699 8.27637 39.126C8.35582 38.9502 8.36426 38.8538 8.36426 37.6611C8.36426 36.4059 8.35982 36.3808 8.26367 36.1758C8.14661 35.9247 7.98813 35.7692 7.7373 35.6562C7.52823 35.56 7.18491 35.5477 6.94238 35.623C6.73748 35.69 6.38596 36.0503 6.32324 36.2637C6.28984 36.3854 6.27344 36.825 6.27344 37.6865C6.27344 38.8539 6.28188 38.9502 6.36133 39.126C6.47423 39.377 6.62901 39.5362 6.87988 39.6533Z" stroke="#E24C55"/>
<path d="M23.6064 39.6533C24.1375 39.9043 24.7562 39.6699 25.0029 39.126C25.0824 38.9502 25.0908 38.8538 25.0908 37.6611C25.0908 36.4059 25.0864 36.3808 24.9902 36.1758C24.8732 35.9247 24.7147 35.7692 24.4639 35.6562C24.2548 35.56 23.9115 35.5477 23.6689 35.623C23.464 35.69 23.1125 36.0503 23.0498 36.2637C23.0164 36.3854 23 36.825 23 37.6865C23 38.8539 23.0084 38.9502 23.0879 39.126C23.2008 39.377 23.3556 39.5362 23.6064 39.6533Z" fill="#E24C55"/>
<path d="M23.6064 39.6533C24.1375 39.9043 24.7562 39.6699 25.0029 39.126C25.0824 38.9502 25.0908 38.8538 25.0908 37.6611C25.0908 36.4059 25.0864 36.3808 24.9902 36.1758C24.8732 35.9247 24.7147 35.7692 24.4639 35.6562C24.2548 35.56 23.9115 35.5477 23.6689 35.623C23.464 35.69 23.1125 36.0503 23.0498 36.2637C23.0164 36.3854 23 36.825 23 37.6865C23 38.8539 23.0084 38.9502 23.0879 39.126C23.2008 39.377 23.3556 39.5362 23.6064 39.6533Z" stroke="#E24C55"/>
<path d="M28.8311 39.6533C29.3621 39.9043 29.9808 39.6699 30.2275 39.126C30.307 38.9502 30.3154 38.8538 30.3154 37.6611C30.3154 36.4059 30.311 36.3808 30.2148 36.1758C30.0978 35.9247 29.9393 35.7692 29.6885 35.6562C29.4794 35.56 29.1361 35.5477 28.8936 35.623C28.6887 35.69 28.3371 36.0503 28.2744 36.2637C28.241 36.3854 28.2246 36.825 28.2246 37.6865C28.2246 38.8539 28.2331 38.9502 28.3125 39.126C28.4254 39.377 28.5802 39.5362 28.8311 39.6533Z" fill="#E24C55"/>
<path d="M28.8311 39.6533C29.3621 39.9043 29.9808 39.6699 30.2275 39.126C30.307 38.9502 30.3154 38.8538 30.3154 37.6611C30.3154 36.4059 30.311 36.3808 30.2148 36.1758C30.0978 35.9247 29.9393 35.7692 29.6885 35.6562C29.4794 35.56 29.1361 35.5477 28.8936 35.623C28.6887 35.69 28.3371 36.0503 28.2744 36.2637C28.241 36.3854 28.2246 36.825 28.2246 37.6865C28.2246 38.8539 28.2331 38.9502 28.3125 39.126C28.4254 39.377 28.5802 39.5362 28.8311 39.6533Z" stroke="#E24C55"/>
<path d="M34.0596 39.6533C34.5906 39.9043 35.2094 39.6699 35.4561 39.126C35.5355 38.9502 35.5439 38.8538 35.5439 37.6611C35.5439 36.4059 35.5395 36.3808 35.4434 36.1758C35.3263 35.9247 35.1678 35.7692 34.917 35.6562C34.7079 35.56 34.3646 35.5477 34.1221 35.623C33.9172 35.69 33.5656 36.0503 33.5029 36.2637C33.4695 36.3854 33.4531 36.825 33.4531 37.6865C33.4531 38.8539 33.4616 38.9502 33.541 39.126C33.6539 39.377 33.8087 39.5362 34.0596 39.6533Z" fill="#E24C55"/>
<path d="M34.0596 39.6533C34.5906 39.9043 35.2094 39.6699 35.4561 39.126C35.5355 38.9502 35.5439 38.8538 35.5439 37.6611C35.5439 36.4059 35.5395 36.3808 35.4434 36.1758C35.3263 35.9247 35.1678 35.7692 34.917 35.6562C34.7079 35.56 34.3646 35.5477 34.1221 35.623C33.9172 35.69 33.5656 36.0503 33.5029 36.2637C33.4695 36.3854 33.4531 36.825 33.4531 37.6865C33.4531 38.8539 33.4616 38.9502 33.541 39.126C33.6539 39.377 33.8087 39.5362 34.0596 39.6533Z" stroke="#E24C55"/>
<path d="M39.2842 39.6533C39.8152 39.9043 40.434 39.6699 40.6807 39.126C40.7601 38.9502 40.7686 38.8538 40.7686 37.6611C40.7686 36.4059 40.7641 36.3808 40.668 36.1758C40.5509 35.9247 40.3924 35.7692 40.1416 35.6562C39.9325 35.56 39.5892 35.5477 39.3467 35.623C39.1418 35.69 38.7903 36.0503 38.7275 36.2637C38.6941 36.3854 38.6777 36.825 38.6777 37.6865C38.6777 38.8539 38.6862 38.9502 38.7656 39.126C38.8785 39.377 39.0333 39.5362 39.2842 39.6533Z" fill="#E24C55"/>
<path d="M39.2842 39.6533C39.8152 39.9043 40.434 39.6699 40.6807 39.126C40.7601 38.9502 40.7686 38.8538 40.7686 37.6611C40.7686 36.4059 40.7641 36.3808 40.668 36.1758C40.5509 35.9247 40.3924 35.7692 40.1416 35.6562C39.9325 35.56 39.5892 35.5477 39.3467 35.623C39.1418 35.69 38.7903 36.0503 38.7275 36.2637C38.6941 36.3854 38.6777 36.825 38.6777 37.6865C38.6777 38.8539 38.6862 38.9502 38.7656 39.126C38.8785 39.377 39.0333 39.5362 39.2842 39.6533Z" stroke="#E24C55"/>
<path d="M44.5127 39.6533C45.0437 39.9043 45.6625 39.6699 45.9092 39.126C45.9886 38.9502 45.9971 38.8538 45.9971 37.6611C45.9971 36.4059 45.9926 36.3808 45.8965 36.1758C45.7794 35.9247 45.621 35.7692 45.3701 35.6562C45.161 35.56 44.8177 35.5477 44.5752 35.623C44.3703 35.69 44.0188 36.0503 43.9561 36.2637C43.9226 36.3854 43.9062 36.825 43.9062 37.6865C43.9063 38.8539 43.9147 38.9502 43.9941 39.126C44.107 39.377 44.2618 39.5362 44.5127 39.6533Z" fill="#E24C55"/>
<path d="M44.5127 39.6533C45.0437 39.9043 45.6625 39.6699 45.9092 39.126C45.9886 38.9502 45.9971 38.8538 45.9971 37.6611C45.9971 36.4059 45.9926 36.3808 45.8965 36.1758C45.7794 35.9247 45.621 35.7692 45.3701 35.6562C45.161 35.56 44.8177 35.5477 44.5752 35.623C44.3703 35.69 44.0188 36.0503 43.9561 36.2637C43.9226 36.3854 43.9062 36.825 43.9062 37.6865C43.9063 38.8539 43.9147 38.9502 43.9941 39.126C44.107 39.377 44.2618 39.5362 44.5127 39.6533Z" stroke="#E24C55"/>
<path d="M61.2373 39.6533C61.7683 39.9043 62.3871 39.6699 62.6338 39.126C62.7132 38.9502 62.7217 38.8538 62.7217 37.6611C62.7217 36.4059 62.7172 36.3808 62.6211 36.1758C62.504 35.9247 62.3456 35.7692 62.0947 35.6562C61.8857 35.56 61.5423 35.5477 61.2998 35.623C61.0949 35.69 60.7434 36.0503 60.6807 36.2637C60.6473 36.3854 60.6309 36.825 60.6309 37.6865C60.6309 38.8539 60.6393 38.9502 60.7188 39.126C60.8316 39.377 60.9864 39.5362 61.2373 39.6533Z" fill="#E24C55"/>
<path d="M61.2373 39.6533C61.7683 39.9043 62.3871 39.6699 62.6338 39.126C62.7132 38.9502 62.7217 38.8538 62.7217 37.6611C62.7217 36.4059 62.7172 36.3808 62.6211 36.1758C62.504 35.9247 62.3456 35.7692 62.0947 35.6562C61.8857 35.56 61.5423 35.5477 61.2998 35.623C61.0949 35.69 60.7434 36.0503 60.6807 36.2637C60.6473 36.3854 60.6309 36.825 60.6309 37.6865C60.6309 38.8539 60.6393 38.9502 60.7188 39.126C60.8316 39.377 60.9864 39.5362 61.2373 39.6533Z" stroke="#E24C55"/>
<path d="M15.6846 44.9863C16.8345 44.9863 17.7715 44.0486 17.7715 42.8936C17.7713 41.948 17.1567 41.1402 16.2285 40.8682C15.8941 40.772 15.3882 40.7846 15.0537 40.8975C14.1506 41.2071 13.59 41.9689 13.5898 42.8936C13.5898 44.0527 14.5222 44.9862 15.6846 44.9863Z" fill="#E24C55"/>
<path d="M15.6846 44.9863C16.8345 44.9863 17.7715 44.0486 17.7715 42.8936C17.7713 41.948 17.1567 41.1402 16.2285 40.8682C15.8941 40.772 15.3882 40.7846 15.0537 40.8975C14.1506 41.2071 13.59 41.9689 13.5898 42.8936C13.5898 44.0527 14.5222 44.9862 15.6846 44.9863Z" stroke="#E24C55"/>
<path d="M53.3174 44.9863C54.4673 44.9863 55.4043 44.0486 55.4043 42.8936C55.4041 41.948 54.7895 41.1402 53.8613 40.8682C53.5269 40.772 53.021 40.7846 52.6865 40.8975C51.7834 41.2071 51.2228 41.9689 51.2227 42.8936C51.2227 44.0527 52.155 44.9862 53.3174 44.9863Z" fill="#E24C55"/>
<path d="M53.3174 44.9863C54.4673 44.9863 55.4043 44.0486 55.4043 42.8936C55.4041 41.948 54.7895 41.1402 53.8613 40.8682C53.5269 40.772 53.021 40.7846 52.6865 40.8975C51.7834 41.2071 51.2228 41.9689 51.2227 42.8936C51.2227 44.0527 52.155 44.9862 53.3174 44.9863Z" stroke="#E24C55"/>
<path d="M3.13672 6.27539C5.38178 6.27539 5.46153 6.27119 5.64551 6.1875C5.89613 6.07457 6.05485 5.91973 6.17188 5.66895C6.42275 5.13751 6.18902 4.51745 5.64551 4.27051C5.46153 4.18682 5.38597 4.18332 3.13672 4.1875C1.56865 4.19168 0.769302 4.20801 0.668945 4.2373C0.46402 4.30445 0.113482 4.66458 0.0507812 4.87793C-0.108031 5.41769 0.117313 5.94463 0.606445 6.1748L0.81543 6.27539H3.13672Z" fill="#E24C55"/>
<path d="M3.13672 6.27539C5.38178 6.27539 5.46153 6.27119 5.64551 6.1875C5.89613 6.07457 6.05485 5.91973 6.17188 5.66895C6.42275 5.13751 6.18902 4.51745 5.64551 4.27051C5.46153 4.18682 5.38597 4.18332 3.13672 4.1875C1.56865 4.19168 0.769302 4.20801 0.668945 4.2373C0.46402 4.30445 0.113482 4.66458 0.0507812 4.87793C-0.108031 5.41769 0.117313 5.94463 0.606445 6.1748L0.81543 6.27539H3.13672Z" stroke="#E24C55"/>
<path d="M20.9102 6.27539C32.6168 6.27539 32.639 6.27535 32.8271 6.1875C33.078 6.07453 33.2374 5.91995 33.3545 5.66895C33.6054 5.13747 33.3707 4.51741 32.8271 4.27051C32.6392 4.18272 32.6181 4.18332 20.9102 4.1875C12.4844 4.19168 9.13872 4.20383 9.03418 4.2373C8.82925 4.30445 8.47872 4.66458 8.41602 4.87793C8.2572 5.41769 8.48255 5.94463 8.97168 6.1748L9.18066 6.27539H20.9102Z" fill="#E24C55"/>
<path d="M20.9102 6.27539C32.6168 6.27539 32.639 6.27535 32.8271 6.1875C33.078 6.07453 33.2374 5.91995 33.3545 5.66895C33.6054 5.13747 33.3707 4.51741 32.8271 4.27051C32.6392 4.18272 32.6181 4.18332 20.9102 4.1875C12.4844 4.19168 9.13872 4.20383 9.03418 4.2373C8.82925 4.30445 8.47872 4.66458 8.41602 4.87793C8.2572 5.41769 8.48255 5.94463 8.97168 6.1748L9.18066 6.27539H20.9102Z" stroke="#E24C55"/>
<path d="M12.5449 10.4609C24.2513 10.4609 24.2738 10.4609 24.4619 10.373C25.0054 10.1262 25.2399 9.50698 24.9893 8.97559C24.8722 8.7245 24.7128 8.56905 24.4619 8.45605C24.2739 8.36827 24.2526 8.36886 12.5449 8.37305C4.11918 8.37723 0.773483 8.38937 0.668945 8.42285C0.46402 8.48999 0.113482 8.85013 0.0507812 9.06348C-0.10803 9.60324 0.117313 10.1302 0.606445 10.3604L0.81543 10.4609H12.5449Z" fill="#E24C55"/>
<path d="M12.5449 10.4609C24.2513 10.4609 24.2738 10.4609 24.4619 10.373C25.0054 10.1262 25.2399 9.50698 24.9893 8.97559C24.8722 8.7245 24.7128 8.56905 24.4619 8.45605C24.2739 8.36827 24.2526 8.36886 12.5449 8.37305C4.11918 8.37723 0.773483 8.38937 0.668945 8.42285C0.46402 8.48999 0.113482 8.85013 0.0507812 9.06348C-0.10803 9.60324 0.117313 10.1302 0.606445 10.3604L0.81543 10.4609H12.5449Z" stroke="#E24C55"/>
<path d="M16.1201 14.5439C16.5004 14.364 16.7265 14.0169 16.7266 13.5986C16.7266 13.1802 16.5006 12.8323 16.1201 12.6523L15.9111 12.5518L8.36328 12.5566C2.98586 12.5608 0.773483 12.573 0.668945 12.6064C0.46402 12.6736 0.113482 13.0337 0.0507812 13.2471C-0.108031 13.7868 0.117313 14.3138 0.606445 14.5439L0.81543 14.6445H15.9111L16.1201 14.5439Z" fill="#E24C55"/>
<path d="M16.1201 14.5439C16.5004 14.364 16.7265 14.0169 16.7266 13.5986C16.7266 13.1802 16.5006 12.8323 16.1201 12.6523L15.9111 12.5518L8.36328 12.5566C2.98586 12.5608 0.773483 12.573 0.668945 12.6064C0.46402 12.6736 0.113482 13.0337 0.0507812 13.2471C-0.108031 13.7868 0.117313 14.3138 0.606445 14.5439L0.81543 14.6445H15.9111L16.1201 14.5439Z" stroke="#E24C55"/>
<path d="M4.18164 18.832C7.47667 18.832 7.55234 18.8278 7.73633 18.7441C7.98693 18.6312 8.14568 18.4764 8.2627 18.2256C8.51356 17.6942 8.2798 17.0741 7.73633 16.8271C7.55234 16.7435 7.48085 16.74 4.18164 16.7441C1.85257 16.7483 0.769301 16.7605 0.668945 16.7939C0.46402 16.8611 0.113482 17.2212 0.0507812 17.4346C-0.108031 17.9743 0.117313 18.5013 0.606445 18.7314L0.81543 18.832H4.18164Z" fill="#E24C55"/>
<path d="M4.18164 18.832C7.47667 18.832 7.55234 18.8278 7.73633 18.7441C7.98693 18.6312 8.14568 18.4764 8.2627 18.2256C8.51356 17.6942 8.2798 17.0741 7.73633 16.8271C7.55234 16.7435 7.48085 16.74 4.18164 16.7441C1.85257 16.7483 0.769301 16.7605 0.668945 16.7939C0.46402 16.8611 0.113482 17.2212 0.0507812 17.4346C-0.108031 17.9743 0.117313 18.5013 0.606445 18.7314L0.81543 18.832H4.18164Z" stroke="#E24C55"/>
</svg>
