<svg width="76" height="76" viewBox="0 0 76 76" fill="none" xmlns="http://www.w3.org/2000/svg">
<path d="M45.1534 0.0332108C43.7912 0.139915 42.5001 0.556061 41.2481 1.29943C40.5012 1.74403 39.9499 1.96811 39.2065 2.13172C38.9042 2.19574 38.6872 2.20997 37.5597 2.23487C36.6563 2.25265 36.1548 2.28111 35.9058 2.32023C33.192 2.76127 30.9974 4.27646 29.6885 6.61328C28.9949 7.85815 28.2694 8.56951 27.1098 9.14927C24.9722 10.2199 23.4926 11.9129 22.7883 14.1039C22.5038 14.9789 22.4042 15.7578 22.4113 17.0311C22.4184 17.931 22.39 18.1693 22.2121 18.7917C22.0948 19.2008 21.7747 19.8588 21.451 20.3567C21.1593 20.8013 20.7574 21.598 20.5902 22.0462C20.4337 22.4766 20.2523 23.2057 20.1812 23.7001C20.0958 24.2799 20.0958 25.3611 20.1812 25.9231C20.3626 27.1395 20.7823 28.2421 21.4474 29.2665C21.8244 29.8427 21.9916 30.177 22.1588 30.6856C22.3758 31.3436 22.4149 31.6531 22.4255 32.8766C22.4327 33.7729 22.4469 34.0112 22.5074 34.3705C22.6639 35.2561 22.8737 35.9035 23.2614 36.6824C23.6918 37.5502 24.1968 38.2403 24.9046 38.9267C25.552 39.5527 26.0997 39.944 27.0138 40.4241C27.309 40.5806 27.6185 40.7514 27.7074 40.8083C28.2338 41.1391 28.8811 41.7579 29.2332 42.263C29.3328 42.4088 29.5356 42.7396 29.685 42.9993C30.03 43.6039 30.2398 43.9098 30.5777 44.3188C31.9186 45.93 33.7859 46.9722 35.9307 47.303C36.3219 47.367 36.6029 47.3812 37.5597 47.3883C38.737 47.399 38.9362 47.4168 39.5088 47.5626C40.1028 47.7191 40.5545 47.9147 41.2659 48.338C42.717 49.1916 44.2109 49.6113 45.8292 49.6113C47.4476 49.6113 48.9414 49.1916 50.3926 48.338C51.104 47.9147 51.5557 47.7191 52.1497 47.5626C52.7259 47.4168 52.9215 47.399 54.0988 47.3883C55.0627 47.3812 55.333 47.367 55.7278 47.3065C57.0438 47.1002 58.214 46.6485 59.2917 45.93C59.7576 45.6171 60.0671 45.3645 60.4939 44.9413C61.1341 44.3117 61.4969 43.8315 61.9735 43.0028C62.1229 42.7396 62.3292 42.4053 62.4323 42.2559C62.7738 41.7579 63.4247 41.1391 63.9511 40.8083C64.04 40.7514 64.3494 40.5806 64.6447 40.4241C65.5588 39.9404 66.1136 39.5456 66.7752 38.9054C67.4652 38.2367 67.9774 37.5325 68.3971 36.6824C68.6923 36.0849 68.8559 35.6474 68.9982 35.0783C69.1902 34.31 69.2258 33.9721 69.2329 32.8411C69.2436 31.6566 69.2792 31.3472 69.4997 30.6856C69.6669 30.177 69.834 29.8427 70.211 29.2665C71.1074 27.8864 71.5413 26.4353 71.5413 24.8205C71.5413 23.8175 71.3883 22.9247 71.0682 22.0462C70.9011 21.5909 70.4991 20.8013 70.1933 20.3283C69.4321 19.151 69.1831 18.2404 69.24 16.8284C69.3539 13.8762 67.828 11.0877 65.2493 9.53696C65.0537 9.41959 64.7336 9.24174 64.538 9.14215C64.0898 8.91808 63.6203 8.60863 63.2646 8.30275C62.9196 8.00398 62.443 7.43489 62.2189 7.0472C62.1265 6.88715 61.9486 6.58126 61.8241 6.36786C61.1875 5.26881 60.1702 4.23378 59.0427 3.5331C58.3029 3.07782 57.3283 2.66879 56.4818 2.46962C55.7491 2.29177 55.461 2.26332 54.0988 2.23487C52.9855 2.21352 52.7508 2.1993 52.4627 2.13528C51.7264 1.97522 51.1573 1.74403 50.4104 1.29943C49.1228 0.538277 47.8744 0.139915 46.4161 0.0296555C45.8826 -0.00946808 45.719 -0.00946808 45.1534 0.0332108ZM46.9923 2.94267C47.7214 3.09917 48.3688 3.36592 49.1086 3.81408C50.1009 4.41162 51.2035 4.80643 52.4093 4.99494C52.7081 5.04118 53.0709 5.05896 53.9565 5.06607C54.9595 5.07318 55.1658 5.08385 55.5108 5.14788C56.8375 5.39685 58.0539 6.09043 58.8542 7.05432C59.121 7.37443 59.2455 7.56294 59.7434 8.41301C60.373 9.48716 61.3013 10.4582 62.3505 11.1482C62.5355 11.2691 62.9516 11.5074 63.2717 11.6746C63.9511 12.0303 64.3068 12.2757 64.7443 12.6918C65.6299 13.5312 66.1883 14.5947 66.3661 15.7756C66.3875 15.9143 66.4053 16.4158 66.4053 16.8817C66.4053 17.3512 66.4231 17.899 66.4408 18.1017C66.5724 19.375 67.0242 20.6341 67.7711 21.7972C68.2477 22.537 68.4718 23.0528 68.6318 23.789C68.7279 24.2158 68.7279 25.3789 68.6354 25.8164C68.4931 26.4886 68.2121 27.1644 67.8636 27.6837C67.138 28.765 66.7361 29.7609 66.5084 31.0342C66.4444 31.3757 66.4266 31.678 66.4053 32.681C66.3804 33.7231 66.3661 33.9543 66.3057 34.2104C65.9749 35.6011 65.1711 36.7571 63.9867 37.5431C63.8408 37.6392 63.4994 37.8348 63.2255 37.9735C61.6214 38.8022 60.4548 39.9191 59.6154 41.4307C59.2028 42.1741 58.9147 42.5582 58.4309 43.0135C57.6769 43.7213 56.7023 44.2228 55.6246 44.4575C55.3401 44.5216 55.0947 44.5358 53.9565 44.5607C52.8254 44.582 52.5551 44.5998 52.1817 44.6674C51.0506 44.8666 50.1009 45.2222 49.0908 45.8198C48.07 46.4244 47.3302 46.677 46.2881 46.773C45.2993 46.8619 44.1326 46.6414 43.2328 46.1897C43.0763 46.1114 42.7775 45.9443 42.5677 45.8198C41.5575 45.2222 40.6079 44.8666 39.4768 44.6674C39.0998 44.5998 38.8366 44.582 37.6842 44.5607C36.233 44.5287 36.1192 44.518 35.4434 44.3082C34.9739 44.1659 34.2448 43.8031 33.8251 43.5043C33.416 43.2091 32.8114 42.6116 32.5375 42.231C32.4272 42.0745 32.2138 41.7295 32.0645 41.4663C31.1468 39.8622 30.0584 38.8129 28.433 37.9735C27.8497 37.6747 27.5082 37.4542 27.1134 37.1234C26.3024 36.4405 25.6516 35.4091 25.399 34.3918C25.2745 33.8939 25.2461 33.6022 25.2496 32.7521C25.2568 31.5179 25.1572 30.771 24.8726 29.896C24.6236 29.1171 24.3782 28.6085 23.9016 27.8615C23.5424 27.3031 23.3574 26.9297 23.1903 26.4246C22.9804 25.7986 22.9306 25.4002 22.952 24.6498C22.984 23.5223 23.2223 22.8038 23.9194 21.7439C24.2502 21.2424 24.6557 20.403 24.8406 19.841C25.1536 18.8878 25.2532 18.1835 25.2532 16.9137C25.2532 16.0068 25.2781 15.7542 25.4204 15.1994C25.6551 14.2888 26.1211 13.4708 26.7862 12.7985C27.2237 12.3575 27.6434 12.0587 28.2871 11.7279C29.2795 11.2158 29.8628 10.8103 30.5315 10.1665C31.1468 9.57253 31.5985 8.9821 32.0645 8.15693C32.1961 7.92218 32.381 7.61629 32.4735 7.48113C33.2809 6.29316 34.6289 5.43598 36.1476 5.14788C36.4962 5.0803 36.6954 5.06963 37.702 5.06607C38.5876 5.05896 38.9504 5.04118 39.2492 4.99494C40.4798 4.80287 41.5575 4.41518 42.557 3.81052C43.3928 3.29835 44.2251 2.98891 45.0467 2.87865C45.47 2.82174 46.5939 2.86086 46.9923 2.94267Z" fill="#E24C55"/>
<path d="M53.871 10.0229C53.6647 10.0763 53.341 10.2612 53.1988 10.4071C53.0245 10.5885 36.2151 37.524 36.1333 37.7552C35.9981 38.1358 36.0657 38.6444 36.304 39.0001C36.4534 39.2242 36.6277 39.37 36.9086 39.5016C37.09 39.587 37.1576 39.5977 37.4706 39.5977C37.8014 39.5977 37.8441 39.5905 38.061 39.4838C38.1891 39.4198 38.3634 39.2953 38.4487 39.21C38.6444 39.0108 55.4146 12.1606 55.5249 11.8725C55.6245 11.6093 55.6245 11.2145 55.5285 10.937C55.3897 10.5458 55.059 10.215 54.6677 10.0763C54.4685 10.0051 54.0559 9.97669 53.871 10.0229Z" fill="#E24C55"/>
<path d="M37.5233 10.6989C35.3181 11.0048 33.4365 12.5769 32.526 14.8746C32.3339 15.3583 32.149 16.0625 32.0601 16.6423C31.9818 17.1402 31.9747 18.282 32.0423 18.7728C32.1917 19.8683 32.5794 20.9816 33.1129 21.8494C34.0803 23.4251 35.6097 24.5063 37.2921 24.8051C37.7794 24.8905 38.6615 24.8905 39.1416 24.8051C40.6177 24.5419 41.9764 23.6847 42.9296 22.4185C43.6908 21.4084 44.1709 20.2418 44.3737 18.9151C44.459 18.3495 44.4626 17.2007 44.3772 16.6387C43.9184 13.6297 41.9266 11.3249 39.3088 10.77C38.914 10.6847 37.9074 10.6455 37.5233 10.6989ZM38.9105 13.5834C40.1731 13.9036 41.1868 15.1271 41.5318 16.7454C41.6243 17.1794 41.6243 18.378 41.5282 18.8048C41.1797 20.4054 40.2514 21.5435 38.9816 21.9455C38.754 22.013 38.6401 22.0273 38.2169 22.0273C37.7936 22.0273 37.6798 22.013 37.4522 21.9455C36.9258 21.7783 36.4883 21.508 36.0792 21.0954C35.471 20.4801 35.0549 19.6335 34.8842 18.6483C34.7846 18.0614 34.8059 17.158 34.9375 16.6032C35.4532 14.4228 37.1463 13.1388 38.9105 13.5834Z" fill="#E24C55"/>
<path d="M52.6262 24.8023C51.8011 24.9374 51.0435 25.2291 50.3677 25.6737C48.696 26.7727 47.6147 28.544 47.2804 30.7243C47.195 31.2898 47.195 32.4387 47.2839 33.0007C47.5863 34.9533 48.5324 36.6428 49.9373 37.7276C51.0008 38.5493 52.1425 38.9512 53.423 38.9512C54.4509 38.9512 55.2974 38.7307 56.2115 38.2185C56.8339 37.8699 57.6129 37.1977 58.0681 36.6108C58.8755 35.5758 59.3877 34.3558 59.5976 32.9651C59.6829 32.4031 59.6829 31.2827 59.5976 30.7279C59.2454 28.4373 58.0432 26.5629 56.2506 25.5136C55.7064 25.1935 55.1765 24.9908 54.5291 24.852C54.0739 24.756 53.078 24.7276 52.6262 24.8023ZM54.0988 27.6512C55.3401 27.9571 56.3538 29.1309 56.7237 30.6994C56.809 31.0622 56.8161 31.1654 56.8197 31.8269C56.8197 32.6379 56.7841 32.8762 56.5707 33.5235C56.1439 34.8004 55.2298 35.7501 54.1343 36.0488C53.7715 36.1484 53.0246 36.1377 52.676 36.031C51.4098 35.6327 50.4744 34.4838 50.1294 32.8904C50.0333 32.4636 50.0333 31.2649 50.1258 30.831C50.5028 29.0704 51.6375 27.8184 53.0495 27.5979C53.3198 27.5552 53.8 27.5801 54.0988 27.6512Z" fill="#E24C55"/>
<path d="M1.63612 46.8687C1.14884 47.0252 0.778937 47.4271 0.67579 47.9144C0.633109 48.1242 0 70.8699 0 72.257C0 73.0431 0.00711358 73.1356 0.0746926 73.317C0.206294 73.6726 0.593984 74.0212 0.985231 74.1386C1.21642 74.2097 12.591 74.5298 12.8471 74.4729C13.2668 74.384 13.651 74.0852 13.8395 73.7047C13.9426 73.4984 13.9569 73.4272 13.9817 73.0218C13.996 72.7728 14.0102 72.4313 14.0138 72.2642V71.9547L15.4507 71.1865C17.1437 70.2795 17.4461 70.1336 17.8729 70.0092C18.4384 69.8455 18.8048 69.8029 19.4556 69.8278C19.7793 69.8384 20.1492 69.8704 20.2808 69.8989C20.4089 69.9309 24.428 71.0513 29.2084 72.3958C33.9887 73.7367 38.0755 74.8713 38.2889 74.9175C39.9997 75.2839 42.1053 75.3728 43.9975 75.1665C45.8328 74.9638 47.7393 74.4587 49.4109 73.7331C49.852 73.541 50.7554 72.9613 62.5462 65.3355C76.2861 56.4507 75.5214 56.9628 75.6885 56.5218C75.9197 55.91 75.7881 55.4441 75.123 54.5513C74.433 53.623 73.5865 52.9188 72.5408 52.403C70.6165 51.4569 68.4149 51.4249 66.4409 52.3141C66.2346 52.4066 63.6915 53.6052 60.7856 54.9817C57.8797 56.3546 55.4219 57.5177 55.3188 57.5639L55.1338 57.6457L55.02 57.443C54.7924 57.0411 54.3442 56.4151 53.9957 56.0096C53.2274 55.1133 52.2706 54.3806 51.1644 53.84C50.1472 53.3456 49.1798 53.0682 48.07 52.9543C47.8744 52.9366 45.3704 52.8547 42.5037 52.7765C36.7025 52.62 36.7452 52.6236 36.0481 52.524C34.6254 52.3212 33.786 52.0296 31.9293 51.087C30.5351 50.3792 29.8735 50.0947 28.8456 49.7532C26.964 49.1272 25.0967 48.8285 23.1014 48.8285C20.3555 48.8285 17.7804 49.4047 15.2444 50.5926C14.8923 50.7562 14.6042 50.8878 14.6006 50.8807C14.5971 50.8772 14.6077 50.4326 14.6255 49.8955C14.6718 48.5083 14.6575 48.2202 14.5366 47.9642C14.4086 47.6832 14.2627 47.5089 14.0387 47.3595C13.651 47.107 14.0742 47.1319 7.86051 46.9611C4.75899 46.8722 2.13407 46.8046 2.02737 46.8046C1.92067 46.8046 1.74283 46.8331 1.63612 46.8687ZM7.90319 49.7888C10.0408 49.8493 11.7908 49.9026 11.7943 49.9062C11.805 49.924 11.1968 71.6097 11.1826 71.6239C11.1648 71.6453 2.86677 71.4141 2.84543 71.3927C2.83832 71.3821 2.96281 66.5306 3.12286 60.6086C3.28648 54.6865 3.41808 49.8066 3.41808 49.7603C3.41452 49.6856 3.42519 49.6821 3.71685 49.6821C3.88402 49.6821 5.76912 49.7319 7.90319 49.7888ZM24.6486 51.7272C26.1033 51.8766 27.4727 52.2145 28.8278 52.7516C29.1977 52.8974 29.9944 53.2709 30.7271 53.6408C31.4171 53.9929 32.1961 54.3628 32.4522 54.466C33.7219 54.9746 34.9846 55.2805 36.3504 55.4085C36.5567 55.4263 39.0678 55.5046 41.9346 55.5828C44.8013 55.6611 47.3694 55.7429 47.6432 55.7606C49.1371 55.8745 50.4317 56.4507 51.481 57.4679C52.1817 58.1508 52.669 58.8835 52.9891 59.7478C53.1278 60.1142 53.2665 60.6263 53.2381 60.6548C53.2309 60.6619 49.7915 60.573 45.5981 60.4556C41.4011 60.3382 37.8905 60.2529 37.798 60.2671C37.5562 60.2991 37.1685 60.5018 36.9977 60.6868C36.4713 61.2594 36.4856 62.1202 37.0262 62.6644C37.2574 62.892 37.5099 63.0129 37.862 63.0556C38.2711 63.109 54.8137 63.5465 55.0378 63.5145C55.4646 63.4433 55.895 63.1161 56.0799 62.7142C56.2435 62.3549 56.2613 61.7859 56.1368 60.7864C56.1084 60.5445 56.0906 60.3382 56.1013 60.3311C56.1546 60.2778 67.6929 54.843 67.9561 54.747C68.8346 54.4268 69.8625 54.4162 70.7695 54.7221C71.2603 54.8857 71.833 55.2058 72.1637 55.501L72.3202 55.6433L60.4085 63.3473C49.4572 70.4324 48.4613 71.0655 48.07 71.2291C46.8714 71.7342 45.4416 72.1183 44.1149 72.3033C42.4325 72.5309 40.551 72.4882 39.018 72.1788C38.7939 72.1361 34.6965 70.9979 29.9126 69.657C25.1287 68.3126 21.0242 67.1744 20.7894 67.1282C19.445 66.8578 18.0649 66.9503 16.7525 67.402C16.2474 67.5763 15.8384 67.7684 14.8887 68.2806C14.4833 68.5011 14.1382 68.6718 14.1276 68.6611C14.1169 68.6469 14.1987 65.4031 14.3054 61.448L14.5046 54.2597L14.59 54.1957C14.7749 54.0534 15.5361 53.6088 16.0127 53.3634C17.9013 52.3888 20.0247 51.809 22.1908 51.6739C22.8133 51.6348 23.9906 51.6597 24.6486 51.7272Z" fill="#E24C55"/>
</svg>
