<svg width="24" height="22" viewBox="0 0 24 22" fill="none" xmlns="http://www.w3.org/2000/svg">
<path d="M16.9521 0.597656C18.736 0.597656 20.3774 1.31713 21.5732 2.62402C22.755 3.91575 23.4053 5.68093 23.4053 7.59375C23.4053 9.56252 22.6774 11.3651 21.1143 13.2656C19.716 14.9658 17.7065 16.6913 15.3799 18.6895C14.5847 19.3721 13.6833 20.1465 12.748 20.9707C12.5012 21.1884 12.184 21.3085 11.8555 21.3086C11.5266 21.3086 11.209 21.1888 10.9619 20.9707C10.0287 20.1484 9.12877 19.375 8.33496 18.6934L8.33105 18.6904C6.00376 16.6918 3.99403 14.9658 2.5957 13.2656C1.03258 11.3649 0.304688 9.56252 0.304688 7.59375C0.30469 5.68093 0.955974 3.91575 2.1377 2.62402C3.33342 1.31738 4.974 0.597728 6.75781 0.597656C8.09128 0.597656 9.31278 1.02258 10.3877 1.86035C10.9302 2.28322 11.4223 2.80063 11.8555 3.4043C12.2887 2.80082 12.7798 2.28314 13.3223 1.86035C14.3972 1.02261 15.6187 0.597683 16.9521 0.597656ZM16.9521 1.96094C15.9255 1.96096 14.9827 2.29 14.1504 2.93848C13.4086 3.51676 12.8918 4.24826 12.5889 4.75977C12.4331 5.02268 12.159 5.17956 11.8555 5.17969C11.5518 5.17969 11.2769 5.0228 11.1211 4.75977C10.8183 4.24826 10.3015 3.51674 9.55957 2.93848C8.72725 2.29004 7.78429 1.96094 6.75781 1.96094C5.35624 1.96101 4.06852 2.52517 3.13184 3.54883C2.18124 4.58799 1.65821 6.02448 1.6582 7.59375C1.6582 9.24958 2.26845 10.7306 3.6377 12.3955C4.96112 14.0048 6.92983 15.695 9.20898 17.6523L9.21289 17.6562C10.0097 18.3406 10.9134 19.116 11.8535 19.9443C12.7991 19.1145 13.7037 18.3376 14.502 17.6523C16.7808 15.6951 18.7488 14.0047 20.0723 12.3955C21.4413 10.7306 22.0527 9.24958 22.0527 7.59375C22.0527 6.02443 21.7567 4.75439 20.5781 3.54883C19.5004 2.44638 18.3536 1.96094 16.9521 1.96094Z" fill="white"/>
<path d="M16.9521 0.597656C18.736 0.597656 20.3774 1.31713 21.5732 2.62402C22.755 3.91575 23.4053 5.68093 23.4053 7.59375C23.4053 9.56252 22.6774 11.3651 21.1143 13.2656C19.716 14.9658 17.7065 16.6913 15.3799 18.6895C14.5847 19.3721 13.6833 20.1465 12.748 20.9707C12.5012 21.1884 12.184 21.3085 11.8555 21.3086C11.5266 21.3086 11.209 21.1888 10.9619 20.9707C10.0287 20.1484 9.12877 19.375 8.33496 18.6934L8.33105 18.6904C6.00376 16.6918 3.99403 14.9658 2.5957 13.2656C1.03258 11.3649 0.304688 9.56252 0.304688 7.59375C0.30469 5.68093 0.955974 3.91575 2.1377 2.62402C3.33342 1.31738 4.974 0.597728 6.75781 0.597656C8.09128 0.597656 9.31278 1.02258 10.3877 1.86035C10.9302 2.28322 11.4223 2.80063 11.8555 3.4043C12.2887 2.80082 12.7798 2.28314 13.3223 1.86035C14.3972 1.02261 15.6187 0.597683 16.9521 0.597656ZM16.9521 1.96094C15.9255 1.96096 14.9827 2.29 14.1504 2.93848C13.4086 3.51676 12.8918 4.24826 12.5889 4.75977C12.4331 5.02268 12.159 5.17956 11.8555 5.17969C11.5518 5.17969 11.2769 5.0228 11.1211 4.75977C10.8183 4.24826 10.3015 3.51674 9.55957 2.93848C8.72725 2.29004 7.78429 1.96094 6.75781 1.96094C5.35624 1.96101 4.06852 2.52517 3.13184 3.54883C2.18124 4.58799 1.65821 6.02448 1.6582 7.59375C1.6582 9.24958 2.26845 10.7306 3.6377 12.3955C4.96112 14.0048 6.92983 15.695 9.20898 17.6523L9.21289 17.6562C10.0097 18.3406 10.9134 19.116 11.8535 19.9443C12.7991 19.1145 13.7037 18.3376 14.502 17.6523C16.7808 15.6951 18.7488 14.0047 20.0723 12.3955C21.4413 10.7306 22.0527 9.24958 22.0527 7.59375C22.0527 6.02443 21.7567 4.75439 20.5781 3.54883C19.5004 2.44638 18.3536 1.96094 16.9521 1.96094Z" stroke="white"/>
</svg>
