<svg width="25" height="22" viewBox="0 0 25 22" fill="none" xmlns="http://www.w3.org/2000/svg">
<path d="M17.3086 0C19.1634 0 20.87 0.754058 22.1133 2.12305C23.3419 3.47608 24.0185 5.32454 24.0186 7.32812C24.0186 9.39026 23.2618 11.2779 21.6367 13.2686C20.1828 15.0497 18.0933 16.8579 15.6738 18.9512C14.847 19.6663 13.91 20.4774 12.9375 21.3408C12.6809 21.5687 12.3513 21.6942 12.0098 21.6943C11.6678 21.6943 11.338 21.5683 11.0811 21.3398C10.1108 20.4785 9.17496 19.6691 8.34961 18.9551L8.3457 18.9512C5.92594 16.8577 3.83571 15.0505 2.38184 13.2695C0.756608 11.2785 0 9.39036 0 7.32812C2.58751e-05 5.32456 0.676651 3.47607 1.90527 2.12305C3.14861 0.75399 4.85494 0 6.70996 0C8.09624 3.13202e-05 9.36587 0.444898 10.4834 1.32227C11.0474 1.76522 11.5593 2.30808 12.0098 2.94043C12.4604 2.30808 12.9709 1.76522 13.5352 1.32227C14.6526 0.444861 15.9224 0.000102019 17.3086 0ZM17.3086 1.42871C16.2412 1.42881 15.2609 1.77284 14.3955 2.45215C13.6244 3.05777 13.0875 3.82362 12.7725 4.35938C12.6105 4.63478 12.3253 4.79966 12.0098 4.7998C11.694 4.7998 11.4081 4.6349 11.2461 4.35938C10.9312 3.8236 10.3943 3.05775 9.62305 2.45215C8.75761 1.77278 7.77732 1.42874 6.70996 1.42871C5.25264 1.42871 3.91341 2.01856 2.93945 3.09082C1.95104 4.17931 1.40725 5.68433 1.40723 7.32812C1.40723 9.06256 2.04218 10.6135 3.46582 12.3574C4.8418 14.0431 6.88812 15.814 9.25781 17.8643L9.2627 17.8682C10.0911 18.5849 11.0304 19.398 12.0078 20.2656C12.9911 19.3963 13.9316 18.5821 14.7617 17.8643C17.1312 15.814 19.1777 14.0431 20.5537 12.3574C21.977 10.6136 22.6123 9.06245 22.6123 7.32812C22.6123 5.68434 22.3045 4.35359 21.0791 3.09082C19.9586 1.93615 18.7657 1.42871 17.3086 1.42871Z" fill="#333333"/>
<path d="M17.3086 0C19.1634 0 20.87 0.754058 22.1133 2.12305C23.3419 3.47608 24.0185 5.32454 24.0186 7.32812C24.0186 9.39026 23.2618 11.2779 21.6367 13.2686C20.1828 15.0497 18.0933 16.8579 15.6738 18.9512C14.847 19.6663 13.91 20.4774 12.9375 21.3408C12.6809 21.5687 12.3513 21.6942 12.0098 21.6943C11.6678 21.6943 11.338 21.5683 11.0811 21.3398C10.1108 20.4785 9.17496 19.6691 8.34961 18.9551L8.3457 18.9512C5.92594 16.8577 3.83571 15.0505 2.38184 13.2695C0.756608 11.2785 0 9.39036 0 7.32812C2.58751e-05 5.32456 0.676651 3.47607 1.90527 2.12305C3.14861 0.75399 4.85494 0 6.70996 0C8.09624 3.13202e-05 9.36587 0.444898 10.4834 1.32227C11.0474 1.76522 11.5593 2.30808 12.0098 2.94043C12.4604 2.30808 12.9709 1.76522 13.5352 1.32227C14.6526 0.444861 15.9224 0.000102019 17.3086 0ZM17.3086 1.42871C16.2412 1.42881 15.2609 1.77284 14.3955 2.45215C13.6244 3.05777 13.0875 3.82362 12.7725 4.35938C12.6105 4.63478 12.3253 4.79966 12.0098 4.7998C11.694 4.7998 11.4081 4.6349 11.2461 4.35938C10.9312 3.8236 10.3943 3.05775 9.62305 2.45215C8.75761 1.77278 7.77732 1.42874 6.70996 1.42871C5.25264 1.42871 3.91341 2.01856 2.93945 3.09082C1.95104 4.17931 1.40725 5.68433 1.40723 7.32812C1.40723 9.06256 2.04218 10.6135 3.46582 12.3574C4.8418 14.0431 6.88812 15.814 9.25781 17.8643L9.2627 17.8682C10.0911 18.5849 11.0304 19.398 12.0078 20.2656C12.9911 19.3963 13.9316 18.5821 14.7617 17.8643C17.1312 15.814 19.1777 14.0431 20.5537 12.3574C21.977 10.6136 22.6123 9.06245 22.6123 7.32812C22.6123 5.68434 22.3045 4.35359 21.0791 3.09082C19.9586 1.93615 18.7657 1.42871 17.3086 1.42871Z" stroke="#333333"/>
</svg>
