<svg width="25" height="26" viewBox="0 0 25 26" fill="none" xmlns="http://www.w3.org/2000/svg">
<path d="M19.4017 25.167C18.4491 25.167 17.2985 24.915 16.034 24.4118C13.2594 23.3071 10.2421 21.1253 7.53596 18.2688C4.82982 15.4123 2.76286 12.2266 1.7163 9.297C0.76368 6.6348 0.76137 4.44977 1.7086 3.44992C1.84567 3.30522 1.98506 3.15078 2.1283 2.99226C2.99313 2.03306 3.99349 0.94298 5.26493 1.00232C6.15825 1.04134 7.02307 1.62662 7.91023 2.78904C10.5255 6.22348 9.34647 7.44769 7.98185 8.86699L7.74004 9.11898C7.51671 9.35472 7.09392 10.4456 11.0207 14.5897C12.3037 15.9432 13.3957 16.9332 14.2682 17.5323C14.8188 17.9095 15.8015 18.4785 16.2042 18.0534L16.4468 17.7949C17.7899 16.3561 18.9496 15.1156 22.2026 17.8754C23.3046 18.8102 23.8583 19.7231 23.8952 20.6668C23.9484 22.0341 22.9164 23.0681 22.0062 23.9802C21.8568 24.1305 21.7105 24.276 21.5749 24.4191C21.1021 24.9174 20.3505 25.167 19.4017 25.167ZM5.17329 1.81195C4.25378 1.81195 3.42207 2.73539 2.68662 3.55153C2.538 3.71573 2.39399 3.87587 2.25306 4.02463C1.54764 4.76842 1.62003 6.72585 2.43634 9.01087C3.44518 11.834 5.44975 14.9181 8.08042 17.6949C10.7111 20.4717 13.6321 22.5869 16.3059 23.6517C18.4706 24.5142 20.325 24.589 21.0305 23.8436C21.1714 23.6956 21.3216 23.5444 21.4756 23.39C22.2672 22.5958 23.1644 21.6968 23.1259 20.6985C23.099 20.0133 22.6261 19.276 21.7197 18.5078C19.0089 16.209 18.2519 17.0219 16.9951 18.3647L16.7487 18.6273C16.1503 19.2622 15.1746 19.1232 13.8485 18.2127C12.9321 17.5836 11.7969 16.5569 10.4762 15.1636C7.21791 11.7243 6.17519 9.62053 7.19557 8.54264L7.44124 8.28577C8.71807 6.95914 9.48817 6.15845 7.30955 3.2971C6.58103 2.34196 5.88255 1.84284 5.23335 1.81358C5.21333 1.81277 5.19254 1.81195 5.17329 1.81195Z" fill="#69C3CC" stroke="#E24D56" stroke-width="0.8"/>
<path d="M19.5342 10.9886C19.4857 10.9886 19.4372 10.9788 19.3895 10.9585C19.1923 10.8739 19.0968 10.6374 19.1777 10.4301C19.6675 9.1555 19.3871 7.70287 18.4661 6.72985C17.5196 5.73081 16.0649 5.45362 14.8443 6.03239C14.6526 6.12425 14.4223 6.03483 14.3353 5.82998C14.2475 5.62514 14.333 5.38452 14.527 5.29267C16.0372 4.57083 17.8385 4.91793 19.0106 6.15595C20.1511 7.35984 20.4969 9.15712 19.8908 10.7357C19.8307 10.8918 19.6859 10.9886 19.5342 10.9886Z" fill="#69C3CC" stroke="#E24D56" stroke-width="0.8"/>
<path d="M22.9736 12.4615C22.9251 12.4615 22.8766 12.4517 22.8288 12.4314C22.6309 12.3469 22.5362 12.1103 22.617 11.903C23.6682 9.16605 23.0698 6.04864 21.0915 3.96033C19.0599 1.81594 15.9356 1.21441 13.3173 2.46381C13.1232 2.55323 12.8953 2.46544 12.8075 2.26059C12.7204 2.05493 12.8059 1.81432 13 1.72165C15.9087 0.334863 19.3787 1.00224 21.6359 3.38481C23.8338 5.70479 24.4992 9.16768 23.3301 12.2079C23.2701 12.3656 23.1253 12.4615 22.9736 12.4615Z" fill="#69C3CC" stroke="#E24D56" stroke-width="0.8"/>
</svg>
