<svg width="16" height="15" viewBox="0 0 16 15" fill="none" xmlns="http://www.w3.org/2000/svg">
<g clip-path="url(#clip0_2925_23766)">
<path d="M14.7954 13.6553L11.2646 10.1631C12.1265 9.12305 12.6419 7.7959 12.6419 6.3457C12.6419 3.02051 9.91388 0.322266 6.55194 0.322266C3.18704 0.322266 0.458984 3.02051 0.458984 6.34863C0.458984 9.67676 3.18704 12.375 6.55194 12.375C8.0152 12.375 9.35997 11.8652 10.4115 11.0127L13.9393 14.502C14.1763 14.7363 14.5584 14.7363 14.7954 14.502C15.0323 14.2676 15.0323 13.8896 14.7954 13.6553ZM1.6675 6.34863C1.6675 3.68262 3.8535 1.52051 6.54898 1.52051C9.24445 1.52051 11.4305 3.68262 11.4305 6.34863C11.4305 9.01465 9.24445 11.1768 6.54898 11.1768C3.8535 11.1768 1.6675 9.01465 1.6675 6.34863Z" fill="#333333"/>
</g>
<defs>
<clipPath id="clip0_2925_23766">
<rect width="15.1657" height="15" fill="white" transform="translate(0.132812)"/>
</clipPath>
</defs>
</svg>
