<?xml version="1.0" encoding="UTF-8"?>
<svg version="1.1" xmlns="http://www.w3.org/2000/svg" width="512" height="512">
<path d="M0 0 C4.00762975 0.03734109 8.01526335 0.07121462 12.02294922 0.10192871 C104.10170561 0.82534433 104.10170561 0.82534433 137.64794922 18.68060303 C139.14841797 19.44630615 139.14841797 19.44630615 140.67919922 20.22747803 C162.36604118 31.96520177 174.67235702 52.15460418 181.83544922 75.11810303 C193.86493801 115.91444524 191.80924891 160.18022466 191.81520629 202.28449869 C191.81592903 205.17009444 191.81808549 208.05568575 191.82070351 210.94128036 C191.82987615 221.07786094 191.83404797 231.2144286 191.83325195 241.35101318 C191.83265071 250.69191228 191.84323276 260.03275374 191.85899562 269.37363827 C191.87219366 277.49358384 191.8774309 285.61351081 191.87679654 293.73346698 C191.87654548 298.53950675 191.87917463 303.34549485 191.88997459 308.15152359 C192.12063424 418.63720607 192.12063424 418.63720607 158.25732422 453.10247803 C157.39623047 453.95325928 156.53513672 454.80404053 155.64794922 455.68060303 C154.66568359 456.6783374 154.66568359 456.6783374 153.66357422 457.69622803 C132.61067224 477.66949401 100.28765931 482.87566744 72.64794922 485.68060303 C71.52130859 485.80048584 70.39466797 485.92036865 69.23388672 486.04388428 C66.03862011 486.33240566 62.85244065 486.52037846 59.64794922 486.68060303 C58.82746094 486.72427002 58.00697266 486.76793701 57.16162109 486.81292725 C43.79463797 487.50264128 30.45058891 487.74561309 17.06884766 487.71502686 C15.49225254 487.71302916 13.91565721 487.71118826 12.33906174 487.70949268 C7.44201495 487.70330678 2.54498566 487.69220093 -2.35205078 487.68060303 C-3.8866424 487.67729877 -5.42123407 487.6740214 -6.95582581 487.67077255 C-26.58529882 487.62779191 -46.21460089 487.54304094 -65.84386826 487.44488811 C-74.89036706 487.3999275 -83.93682419 487.36039603 -92.98339844 487.33416748 C-100.99870644 487.310922 -109.01389694 487.27729869 -117.02911115 487.23190147 C-121.22705249 487.20843981 -125.42488177 487.1894065 -129.62288666 487.18298912 C-225.00906415 487.0175007 -225.00906415 487.0175007 -258.35205078 457.68060303 C-259.60501953 456.70993896 -259.60501953 456.70993896 -260.88330078 455.71966553 C-282.55585668 437.8192317 -289.18049185 405.34008756 -292.60205078 379.05560303 C-292.76527832 377.80650146 -292.92850586 376.5573999 -293.09667969 375.27044678 C-295.02549768 359.47837781 -295.49852422 343.6421103 -295.66845703 327.74700928 C-295.68929974 326.04939482 -295.71038963 324.35178339 -295.73170471 322.6541748 C-295.78718459 318.12314272 -295.83692785 313.59206692 -295.8846817 309.06094742 C-295.91478884 306.22064417 -295.94613159 303.38035669 -295.97772217 300.54006958 C-296.26871895 274.13712504 -296.45689592 247.73461722 -296.47498703 221.33002853 C-296.47700729 219.04235199 -296.48074358 216.75468407 -296.4848938 214.4670105 C-296.52978857 186.14387599 -296.35162582 157.73621299 -294.03955078 129.49310303 C-293.97613495 128.69082275 -293.91271912 127.88854248 -293.84738159 127.06195068 C-291.00997104 91.55052219 -285.427864 52.88512333 -257.20800781 28.20843506 C-196.89444626 -21.44195539 -73.26114715 -0.68277562 0 0 Z M-211.35205078 158.68060303 C-214.80553489 164.41722385 -212.74311791 170.5104475 -211.35205078 176.68060303 C-206.49169128 195.5063666 -198.44503658 213.45860165 -189.42529297 230.63323975 C-188.69471849 232.02691526 -187.97168687 233.42456502 -187.25537109 234.82562256 C-181.33292365 246.37515242 -174.52930455 257.25752235 -167.35205078 268.05560303 C-166.73311951 268.99125092 -166.73311951 268.99125092 -166.10168457 269.94580078 C-144.68097103 302.23004333 -118.51670907 329.37764735 -81.03955078 342.05560303 C-80.33540039 342.29432129 -79.63125 342.53303955 -78.90576172 342.7789917 C-69.09677051 345.92537925 -59.50219114 347.0258264 -49.22705078 346.99310303 C-48.20740234 347.00921631 -47.18775391 347.02532959 -46.13720703 347.04193115 C-39.21513751 347.04637407 -31.65194032 346.77424947 -26.35205078 341.80560303 C-23.88907056 336.57177005 -24.18909869 330.99164979 -24.14111328 325.32904053 C-24.11306636 323.49048963 -24.08440208 321.65194806 -24.05517578 319.81341553 C-24.01379166 316.92539521 -23.97688702 314.03755342 -23.95068359 311.14935303 C-23.92315495 308.3547214 -23.87731301 305.56087249 -23.82861328 302.76654053 C-23.82536041 301.9008847 -23.82210754 301.03522888 -23.8187561 300.14334106 C-23.80218964 299.33885529 -23.78562317 298.53436951 -23.76855469 297.70550537 C-23.75642441 296.64557877 -23.75642441 296.64557877 -23.74404907 295.5642395 C-23.23413114 293.1139737 -22.29570873 292.2129625 -20.35205078 290.68060303 C-12.40505683 289.09384883 -5.95324545 291.37047275 0.64794922 295.68060303 C4.13003901 298.18727174 7.40448 300.87365705 10.64794922 303.68060303 C11.46134766 304.38314209 12.27474609 305.08568115 13.11279297 305.80950928 C23.00396128 314.54436407 32.09359675 323.92265689 40.60498047 333.99700928 C45.25736996 339.39662767 49.70702282 344.36696089 56.64794922 346.68060303 C58.13469188 346.78647355 59.6255744 346.83909002 61.1159668 346.85760498 C62.01732864 346.87044022 62.91869049 346.88327545 63.84736633 346.89649963 C64.819254 346.90388657 65.79114166 346.9112735 66.79248047 346.91888428 C67.79502365 346.92695602 68.79756683 346.93502777 69.83049011 346.94334412 C71.9529752 346.95717666 74.07548246 346.96790252 76.19799805 346.97576904 C79.43760483 346.99298165 82.67619097 347.03687578 85.91552734 347.08099365 C87.97867089 347.0911209 90.0418231 347.0996369 92.10498047 347.10638428 C93.07079544 347.12389236 94.03661041 347.14140045 95.0316925 347.15943909 C100.87986379 347.14065464 104.19056866 346.57203887 108.64794922 342.68060303 C110.42438441 339.12773265 109.46948397 335.4585058 108.64794922 331.68060303 C101.14186551 310.95434485 80.09443554 291.98270838 64.68310547 276.73919678 C52.98999247 264.9114222 52.98999247 264.9114222 52.26391602 258.05316162 C52.35056433 252.78944432 54.79056466 249.42764639 57.72998047 245.21966553 C58.25879318 244.43022552 58.7876059 243.64078552 59.33244324 242.8274231 C61.02472891 240.30812342 62.74127707 237.80661279 64.46044922 235.30560303 C66.68179066 232.03133216 68.89369445 228.75073322 71.10498047 225.46966553 C71.92798141 224.25255135 71.92798141 224.25255135 72.76760864 223.010849 C80.67629049 211.26249137 88.1400627 199.20335434 94.64794922 186.61810303 C95.32277344 185.35063232 95.32277344 185.35063232 96.01123047 184.05755615 C100.07252621 176.27640103 103.72584842 168.61176787 102.64794922 159.68060303 C100.14862775 157.00891456 97.43184893 155.81190051 93.73980713 155.54016113 C92.6622818 155.52991913 92.6622818 155.52991913 91.56298828 155.51947021 C90.33591156 155.5050589 90.33591156 155.5050589 89.08404541 155.49035645 C88.20278992 155.48610657 87.32153442 155.48185669 86.41357422 155.47747803 C85.50218689 155.47177795 84.59079956 155.46607788 83.65179443 155.46020508 C81.72181355 155.45075794 79.79181656 155.44422223 77.86181641 155.44036865 C74.9230495 155.43068573 71.98498883 155.39966908 69.04638672 155.36810303 C67.16878669 155.36157036 65.29118168 155.35632093 63.41357422 155.35247803 C62.10383636 155.33395782 62.10383636 155.33395782 60.76763916 155.31506348 C53.98976289 155.33955133 49.09294584 156.34839643 44.02294922 161.18450928 C40.73585106 165.54366185 38.79295689 170.63492539 36.64794922 175.61810303 C28.24956307 194.46653259 18.23199618 212.29887803 5.64794922 228.68060303 C4.93227783 229.61283691 4.93227783 229.61283691 4.20214844 230.56390381 C-1.65943712 238.08710408 -7.60739945 245.28530629 -16.85986328 248.57122803 C-19.35205078 248.68060303 -19.35205078 248.68060303 -21.47567749 247.15539551 C-23.95784408 243.88160812 -23.91214431 241.14119114 -23.86621094 237.19329834 C-23.87333603 236.44478607 -23.88046112 235.6962738 -23.88780212 234.92507935 C-23.90708575 232.45269379 -23.89880085 229.98116391 -23.89111328 227.50872803 C-23.90102246 225.78481805 -23.91296455 224.06091867 -23.92684937 222.33703613 C-23.95923732 217.79611728 -23.96960427 213.25543948 -23.97369385 208.7144165 C-23.98244075 201.46084495 -24.01814204 194.20747203 -24.06586838 186.95406342 C-24.07839276 184.4282023 -24.07770013 181.90259468 -24.07559204 179.37670898 C-24.08217875 177.81296601 -24.08918626 176.24922473 -24.09667969 174.68548584 C-24.09255569 173.99117462 -24.0884317 173.2968634 -24.08418274 172.58151245 C-24.1248711 167.58114455 -24.70002509 163.37875644 -26.35205078 158.68060303 C-29.86752207 155.58316943 -32.87056469 155.30556713 -37.45581055 155.30828857 C-38.66378799 155.30205978 -39.87176544 155.29583099 -41.11634827 155.28941345 C-42.41229416 155.2986232 -43.70824005 155.30783295 -45.04345703 155.31732178 C-46.3943634 155.31784087 -47.74527053 155.31732127 -49.09617615 155.31581116 C-51.92141052 155.31590067 -54.74635831 155.3262885 -57.5715332 155.34442139 C-61.18859374 155.36712985 -64.80523673 155.36764657 -68.42234898 155.36090374 C-71.20964759 155.35755909 -73.99685139 155.36420278 -76.784132 155.37403297 C-78.76497998 155.37973974 -80.74584412 155.37845085 -82.72669983 155.37705994 C-83.93152512 155.38659195 -85.1363504 155.39612396 -86.37768555 155.40594482 C-87.43738052 155.41055222 -88.4970755 155.41515961 -89.58888245 155.41990662 C-92.40792545 155.68587463 -94.01089906 156.11636134 -96.35205078 157.68060303 C-98.71427032 161.22393234 -98.8658167 162.50434739 -98.35205078 166.68060303 C-96.98605577 168.96298883 -95.66029297 170.91644882 -94.03955078 172.99310303 C-90.35173368 177.99595568 -87.68709216 182.57755674 -86.35205078 188.68060303 C-86.18135071 189.42005157 -86.01065063 190.15950012 -85.83477783 190.9213562 C-85.30684875 193.93897588 -85.21048103 196.76514448 -85.19091797 199.82855225 C-85.18131042 201.04686737 -85.17170288 202.2651825 -85.1618042 203.52041626 C-85.15542938 205.48302902 -85.15542938 205.48302902 -85.14892578 207.48529053 C-85.14468472 208.4913352 -85.14468472 208.4913352 -85.14035797 209.51770401 C-85.12540725 213.06598551 -85.11615141 216.61422676 -85.11181641 220.16253662 C-85.10633314 223.81297302 -85.08229679 227.46303619 -85.05384445 231.11335564 C-85.03515248 233.93420465 -85.03000904 236.75496482 -85.02848053 239.57587051 C-85.02401243 241.57158995 -85.0054015 243.56726169 -84.98651123 245.56289673 C-85.00234518 252.02405125 -85.14409843 256.99839833 -88.35205078 262.68060303 C-94.48437009 263.26463344 -97.26225494 261.20081529 -101.89892578 257.41888428 C-117.30259989 243.44555133 -127.59244021 221.2402377 -136.35205078 202.68060303 C-136.89925781 201.52238037 -136.89925781 201.52238037 -137.45751953 200.34075928 C-142.12558365 190.38328462 -146.42779997 180.39703337 -149.8815918 169.94696045 C-151.79826899 164.38353505 -154.02715078 159.52706843 -159.40991211 156.53778076 C-163.62826116 155.30878537 -167.66275151 155.37537341 -172.03564453 155.37982178 C-173.43533226 155.37339409 -173.43533226 155.37339409 -174.86329651 155.36683655 C-176.83260285 155.36110533 -178.80193035 155.36058407 -180.77124023 155.3649292 C-183.77575976 155.36808853 -186.77929353 155.34461705 -189.78369141 155.3192749 C-191.70100788 155.31700165 -193.61832699 155.31629854 -195.53564453 155.31732178 C-196.87652382 155.30350716 -196.87652382 155.30350716 -198.24449158 155.28941345 C-203.35051975 155.32708294 -206.95078385 155.79318084 -211.35205078 158.68060303 Z " fill="#335D90" transform="translate(308.35205078125,12.31939697265625)"/>
</svg>
